<svg id="be661cd5-628c-4a9c-bca1-a26b2fd71fcf" data-name="Layer 1" xmlns="http://www.w3.org/2000/svg" viewBox="0 0 1970.5 460.1"><g style="isolation:isolate"><g style="isolation:isolate"><path d="M0,227.5a123.5,123.5,0,0,1,10-49.6,131.5,131.5,0,0,1,67.1-68.5,116.5,116.5,0,0,1,48.4-10.3,112.1,112.1,0,0,1,31.5,4.3A105.8,105.8,0,0,1,181.6,114a78.5,78.5,0,0,1,16.7,13.2,50.8,50.8,0,0,1,8.6,12l2.2-33.8h47V344.9H206.9V314.6a73.8,73.8,0,0,1-9.2,10.9,71.2,71.2,0,0,1-16.3,11.7,126.8,126.8,0,0,1-23.8,9.5,115.8,115.8,0,0,1-31.5,4,126.6,126.6,0,0,1-50.8-10.1A122.4,122.4,0,0,1,9.5,274.5,119.6,119.6,0,0,1,0,227.5Zm49.3-2.9a79.7,79.7,0,0,0,6,31,74,74,0,0,0,41,40.9,80.4,80.4,0,0,0,31.5,6,83.3,83.3,0,0,0,31.8-6,76.3,76.3,0,0,0,25.2-16.6,73.9,73.9,0,0,0,16.3-24.6,81.1,81.1,0,0,0,5.8-30.7,80.2,80.2,0,0,0-5.8-30.6,70.2,70.2,0,0,0-16.3-24.4,78.7,78.7,0,0,0-25.2-16.3,83.3,83.3,0,0,0-31.8-6,80.4,80.4,0,0,0-31.5,6,75.4,75.4,0,0,0-24.7,16.3,77.1,77.1,0,0,0-22.3,55Z" fill="#f6712e"/><path d="M553.5,225.8c0,17.9-3,34.5-9.2,49.8a115.9,115.9,0,0,1-25.7,39.5,119.1,119.1,0,0,1-39.9,26.1q-23.1,9.4-50.7,9.5a114.5,114.5,0,0,1-27.2-3.2,110,110,0,0,1-23.8-8.6,102,102,0,0,1-18.9-12,52.5,52.5,0,0,1-12-13.5q0,2.9.3,6c.2,2.1.3,4.2.3,6.1V460.1H297.4V105.4h47.5c0,4.6.3,10.3.9,16.9s.9,12.7.9,18.1A76.4,76.4,0,0,1,359,126.3a97.6,97.6,0,0,1,18.3-13.1,120,120,0,0,1,23.8-10.1,102.6,102.6,0,0,1,29.2-4c18.4,0,35.1,3,50.2,8.9a112.6,112.6,0,0,1,38.9,25.2A111,111,0,0,1,544.6,173C550.6,188.7,553.5,206.3,553.5,225.8Zm-53.3-1.2a88.5,88.5,0,0,0-5.1-30.6,69.2,69.2,0,0,0-38.4-40.7,76.9,76.9,0,0,0-31-6,83.3,83.3,0,0,0-31.8,6A75.3,75.3,0,0,0,369,169.6a77.1,77.1,0,0,0-22.3,55,79.7,79.7,0,0,0,6,31A76,76,0,0,0,369,280.2a75.3,75.3,0,0,0,24.9,16.3,83.3,83.3,0,0,0,31.8,6,76.9,76.9,0,0,0,31-6,69.2,69.2,0,0,0,23.5-16.6,75.1,75.1,0,0,0,14.9-24.6A89.5,89.5,0,0,0,500.2,224.6Z" fill="#f6712e"/><path d="M835.4,225.8c0,17.9-3,34.5-9.1,49.8a117.6,117.6,0,0,1-25.8,39.5,119.1,119.1,0,0,1-39.9,26.1q-23.1,9.4-50.7,9.5a114.5,114.5,0,0,1-27.2-3.2,110,110,0,0,1-23.8-8.6,102,102,0,0,1-18.9-12,52.5,52.5,0,0,1-12-13.5q0,2.9.3,6c.2,2.1.3,4.2.3,6.1V460.1H579.3V105.4h47.6c0,4.6.2,10.3.8,16.9s.9,12.7.9,18.1a76.4,76.4,0,0,1,12.3-14.1,101,101,0,0,1,18.3-13.1A120,120,0,0,1,683,103.1a102.6,102.6,0,0,1,29.2-4c18.4,0,35.1,3,50.2,8.9a109.1,109.1,0,0,1,64.1,65C832.5,188.7,835.4,206.3,835.4,225.8Zm-53.3-1.2A88.5,88.5,0,0,0,777,194a71.2,71.2,0,0,0-14.9-24.4,70.2,70.2,0,0,0-23.5-16.3,76.9,76.9,0,0,0-31-6,83.3,83.3,0,0,0-31.8,6,75.3,75.3,0,0,0-24.9,16.3,77.1,77.1,0,0,0-22.3,55,79.7,79.7,0,0,0,6,31,76,76,0,0,0,16.3,24.6,75.3,75.3,0,0,0,24.9,16.3,83.3,83.3,0,0,0,31.8,6,76.9,76.9,0,0,0,31-6,68.2,68.2,0,0,0,23.5-16.6A75.1,75.1,0,0,0,777,255.3,89.5,89.5,0,0,0,782.1,224.6Z" fill="#f6712e"/></g><g style="isolation:isolate"><path d="M991.3,126.6,965.5,161c-.4-.4-1.7-1.3-4-2.9a56.2,56.2,0,0,0-8.9-4.5,87.8,87.8,0,0,0-12.6-4.3,51.9,51.9,0,0,0-14.6-2,44.2,44.2,0,0,0-19.2,4.5c-6.3,3.1-9.5,8.8-9.5,17.2a22.6,22.6,0,0,0,7.8,17.8,77.4,77.4,0,0,0,19.2,12.3c7.6,3.6,15.9,7.4,24.9,11.2a125.9,125.9,0,0,1,24.9,14A73.1,73.1,0,0,1,992.7,245c5.2,8.2,7.7,18.6,7.7,31.2,0,21.4-7.3,39-22,53s-34.9,20.9-60.5,20.9a129.5,129.5,0,0,1-43.8-7.7c-14.3-5.2-25.9-12.7-34.7-22.7a92,92,0,0,0,8.9-10.3c3.3-4.2,6.5-8.2,9.8-12l8-9.5c2.1-2.5,3.3-3.7,3.7-3.7s1.4,1.5,4.3,3.4a74.3,74.3,0,0,0,11.2,6.1,118.7,118.7,0,0,0,15.4,5.7,60.8,60.8,0,0,0,17.2,2.6c9.2,0,17-2.3,23.5-6.9s9.8-10.7,9.8-18.3-2.6-12.4-7.8-16.4a94.4,94.4,0,0,0-19.2-11.2c-7.6-3.4-16-6.9-25.2-10.6a108.5,108.5,0,0,1-25.2-14,75.1,75.1,0,0,1-19.2-21.5c-5.1-8.6-7.7-19.7-7.7-33.5s2.4-23.9,7.1-32.7a65,65,0,0,1,18.4-21.4,72.1,72.1,0,0,1,24.9-12.1,100.5,100.5,0,0,1,26.4-3.7c11,0,22.9,2.3,35.5,6.9A86.5,86.5,0,0,1,991.3,126.6Z" fill="#38a7ac"/><path d="M1152.3,143.8l-17.8-38.4h42.4q16.6,36.2,28.1,62.2t19.5,45.3c5.3,12.8,9.7,23.6,13.2,32.3s6.3,16.3,8.6,22.4a226.7,226.7,0,0,1,8.3-31.2c3.2-9.4,7.3-19.9,12.3-31.6s11-25.2,18-40.6,15.6-35.1,25.5-58.8h49.3L1246.3,359.3q-10.3-21.3-19.2-42.1c-6-14-11.7-27.8-17.2-41.6s-11.3-27.5-17.2-41.2-12.3-27.9-19.2-42.5l-72.8,167.4L992.4,105.4h49.3l24.6,59c6.5,15.7,12,29.3,16.4,40.7s7.9,21.9,10.6,31.3,5.1,19.7,7.4,31.2c1.5-4.6,3.4-9.8,5.5-15.5s4.9-13.1,8.6-22,8.5-20.4,14.6-34.1S1143.1,164.8,1152.3,143.8Z" fill="#38a7ac"/><path d="M1564.3,316.9c-11.5,10.3-25.4,18.5-41.9,24.6a143.5,143.5,0,0,1-50.4,9.2,123.1,123.1,0,0,1-49.5-10.1,128.1,128.1,0,0,1-40.4-26.9,126,126,0,0,1-27.3-39.8,123.6,123.6,0,0,1,0-97.4,130.2,130.2,0,0,1,67.1-67.3,117.9,117.9,0,0,1,48.4-10.1q40.7,0,70.8,24.4t43.2,63.9c-11.8,4.2-25.4,9.3-40.6,15.4L1496.1,222c-16.4,6.7-32.9,13.3-49.3,19.8s-31.7,12.4-45.8,17.8a77.2,77.2,0,0,0,69.9,42.9,91.2,91.2,0,0,0,31.2-5.7c10.5-3.8,19-9,25.5-15.5Zm-41.3-141a45.1,45.1,0,0,0-21.8-21.5,68.6,68.6,0,0,0-30.3-7.1,74.3,74.3,0,0,0-30.7,6.3,77.4,77.4,0,0,0-24.3,16.9,81.3,81.3,0,0,0-16.4,24.3,69.6,69.6,0,0,0-6,28.1,18.3,18.3,0,0,0,.3,4,7.5,7.5,0,0,1,.3,1.7q14.9-5.7,32.4-12.9l34.6-14.3c11.5-4.8,22.6-9.4,33.3-13.7Z" fill="#38a7ac"/><path d="M1802.1,316.9c-11.5,10.3-25.4,18.5-41.9,24.6a143.5,143.5,0,0,1-50.4,9.2,122.8,122.8,0,0,1-49.5-10.1,128.1,128.1,0,0,1-40.4-26.9,126,126,0,0,1-27.3-39.8,123.6,123.6,0,0,1,0-97.4,130.2,130.2,0,0,1,67.1-67.3,117.9,117.9,0,0,1,48.4-10.1q40.7,0,70.8,24.4t43.2,63.9c-11.8,4.2-25.4,9.3-40.7,15.4L1733.9,222c-16.4,6.7-32.9,13.3-49.3,19.8s-31.7,12.4-45.8,17.8a77.2,77.2,0,0,0,69.9,42.9,91.2,91.2,0,0,0,31.2-5.7c10.5-3.8,19-9,25.5-15.5Zm-41.3-141a45.1,45.1,0,0,0-21.8-21.5,68.6,68.6,0,0,0-30.3-7.1,74.3,74.3,0,0,0-30.7,6.3,77.4,77.4,0,0,0-24.3,16.9,79.5,79.5,0,0,0-16.4,24.3,69.6,69.6,0,0,0-6,28.1,18.3,18.3,0,0,0,.3,4,7.5,7.5,0,0,1,.3,1.7q14.8-5.7,32.4-12.9l34.6-14.3c11.5-4.8,22.6-9.4,33.3-13.7Z" fill="#38a7ac"/><path d="M1857.7,0h48.7V106h64.1v43.5h-64.1V344.9h-48.7V149.5h-43V106h43Z" fill="#38a7ac"/></g></g></svg>